<svg xmlns="http://www.w3.org/2000/svg" xmlns:xlink="http://www.w3.org/1999/xlink" width="1536" height="710" viewBox="-221 -104 1536 710"> <g class="graph" id="graph1"> <title>automaton</title><g class="node" id="RV9JTklU"><title>E_INIT</title><ellipse fill="white" fill-opacity="0" stroke="black" rx="45.599998474121094" ry="45.38479995727539" cx="204" cy="253" class=""></ellipse><text text-anchor="middle" font-family="Times Roman, serif" font-size="14.00" x="204" y="257">E_INIT</text></g><g class="initialStateArrow" transform="rotate(0 158.39999389648438 253)" id="initialStateArrow"><title>_begin-&gt;0</title><path stroke="black" d="M120.40033912658691,253 C139.73367245992026,253 149.06700579325357,253 148.4003391265869,253"></path><polygon stroke="black" fill="black" points="158.4 253 148.4 249 153.4 253 148.4 253 148.4 253 148.4 253 153.4 253 148.4 257 158.4 253 158.4 253"></polygon></g><g class="node" id="RV9FTlRJRVI="><title>E_ENTIER</title><ellipse fill="white" fill-opacity="0" stroke="black" rx="48.887901306152344" ry="46.38479995727539" cx="373" cy="109" class=""></ellipse><text text-anchor="middle" font-family="Times Roman, serif" font-size="14.00" x="373" y="113">E_ENTIER</text></g><g class="node" id="RV9DQVI="><title>E_CAR</title><ellipse fill="white" fill-opacity="0" stroke="black" rx="47.88789749145508" ry="47.384803771972656" cx="337" cy="464" class=""></ellipse><text text-anchor="middle" font-family="Times Roman, serif" font-size="14.00" x="337" y="468">E_CAR</text></g><g class="node" id="RV9GSU4="><title>E_FIN</title><ellipse fill="white" fill-opacity="0" stroke="black" rx="49.400001525878906" ry="48.38479995727539" cx="777" cy="258" class=""></ellipse><ellipse fill="white" fill-opacity="0" stroke="black" rx="53.400001525878906" ry="52.38479995727539" cx="777" cy="258" class="automata-designer-resize-handled"></ellipse><text text-anchor="middle" font-family="Times Roman, serif" font-size="14.00" x="777" y="262">E_FIN</text></g><g class="node" id="RV9FTlRJRVJfREVDSU1BTA=="><title>E_ENTIER_DECIMAL</title><ellipse fill="white" fill-opacity="0" stroke="black" rx="57.599998474121094" ry="53.384803771972656" cx="627" cy="99" class=""></ellipse><text text-anchor="middle" font-family="Times Roman, serif" font-size="14.00" x="627" y="103">E_ENTIER_DECIMAL</text></g><g class="edge" id="RV9JTklU RV9FTlRJRVI="><title>E_INIT-&gt;E_ENTIER</title><path fill="none" stroke="black" d="M 238.63975135686943 223.48447221663196 C 268.76486420639816 197.81573700756604 298.8899770559269 172.14700179850013 329.0150899054557 146.4782665894342"></path><polygon fill="black" stroke="black" points="331.285 149.142 336.627 139.993 326.745 143.814 331.285 149.142"></polygon><text text-anchor="middle" font-family="Times Roman, serif" font-size="14.00" x="272.71435546875" y="213.70074462890625">0...9</text></g><g class="edge" id="RV9JTklU RV9DQVI="><title>E_INIT-&gt;E_CAR</title><path fill="none" stroke="black" d="M 228.23338860440577 291.44545109420767 C 254.263856191864 332.7419071916038 280.2943237793222 374.0383632889999 306.3247913667804 415.334819386396"></path><polygon fill="black" stroke="black" points="309.286 413.468 311.657 423.794 303.364 417.201 309.286 413.468"></polygon><text text-anchor="middle" font-family="Times Roman, serif" font-size="14.00" x="224.98326110839844" y="407.14666748046875">a,b...z,A,B....Z</text></g><g class="edge" id="RV9DQVI= RV9DQVI="><title>E_CAR-&gt;E_CAR</title><path fill="none" stroke="black" d="M 329.8345205853546 417.14865345413 C 328.8345205853546 407.14865345413 329 398.14865345413 337 398.14865345413 C 342 398.14865345413 346 401.14865345413 347 407.14865345413"></path><polygon fill="black" stroke="black" points="350.447 407.755 345.211 417.317 343.553 406.542 350.447 407.755"></polygon><text text-anchor="middle" font-family="Times Roman, serif" font-size="14.00" x="337" y="393.1486511230469">a,b...z,A,B....Z</text></g><g class="edge" id="RV9FTlRJRVI= RV9FTlRJRVI="><title>E_ENTIER-&gt;E_ENTIER</title><path fill="none" stroke="black" d="M 365.87266424211157 63.11079130000161 C 364.87266424211157 53.11079130000161 365 44.11079130000161 373 44.11079130000161 C 378 44.11079130000161 382 47.11079130000161 383 53.11079130000161"></path><polygon fill="black" stroke="black" points="386.445 53.727 381.182 63.27 379.555 52.494 386.445 53.727"></polygon><text text-anchor="middle" font-family="Times Roman, serif" font-size="14.00" x="373" y="39.11079406738281">0....9</text></g><g class="edge" id="RV9DQVI= RV9GSU4="><title>E_CAR-&gt;E_FIN</title><path fill="none" stroke="black" d="M 380.28700373924755 443.7338118857159 C 494.6491913330596 390.1915149667948 609.0113789268717 336.6492180478737 719.7506234359324 284.80311565348023"></path><polygon fill="black" stroke="black" points="721.235 287.973 728.807 280.563 718.267 281.633 721.235 287.973"></polygon><text text-anchor="middle" font-family="Times Roman, serif" font-size="14.00" x="532.762451171875" y="347.1634216308594">&lt;&gt;caractere</text></g><g class="edge" id="RV9FTlRJRVI= RV9FTlRJRVJfREVDSU1BTA=="><title>E_ENTIER-&gt;E_ENTIER_DECIMAL</title><path fill="none" stroke="black" d="M 421.8458678605972 107.07693433619696 C 467.7171252943603 105.27097931911968 513.5883827281234 103.46502430204238 559.4596401618865 101.6590692849651"></path><polygon fill="black" stroke="black" points="559.597 105.156 569.452 101.266 559.322 98.1618 559.597 105.156"></polygon><text text-anchor="middle" font-family="Times Roman, serif" font-size="14.00" x="489.2459680235982" y="93.6881829632498">"."</text></g><g class="edge" id="RV9FTlRJRVJfREVDSU1BTA== RV9FTlRJRVJfREVDSU1BTA=="><title>E_ENTIER_DECIMAL-&gt;E_ENTIER_DECIMAL</title><path fill="none" stroke="black" d="M 619.5837911510673 46.05953865869773 C 618.5837911510673 36.05953865869773 619 27.059538658697733 627 27.059538658697733 C 632 27.059538658697733 636 30.059538658697733 637 36.05953865869773"></path><polygon fill="black" stroke="black" points="640.457 36.609 635.391 46.185 633.543 35.51 640.457 36.609"></polygon><text text-anchor="middle" font-family="Times Roman, serif" font-size="14.00" x="627" y="22.059539794921875">0...9</text></g><g class="edge" id="RV9FTlRJRVJfREVDSU1BTA== RV9GSU4="><title>E_ENTIER_DECIMAL-&gt;E_FIN</title><path fill="none" stroke="black" d="M 664.9140962026069 139.1889419747633 C 688.8135659970662 164.52237995689026 712.7130357915257 189.8558179390172 733.86720505035 212.27923575400558"></path><polygon fill="black" stroke="black" points="736.413 209.877 740.729 219.553 731.321 214.681 736.413 209.877"></polygon><text text-anchor="middle" font-family="Times Roman, serif" font-size="14.00" x="755.806396484375" y="174.19256591796875">&lt;&gt;chiffre</text></g><g class="edge" id="RV9JTklU RV9GSU4="><title>E_INIT-&gt;E_FIN</title><path fill="none" stroke="black" d="M 249.59824600906845 253.3978904538313 C 404.2663278816337 254.74752467610503 558.9344097541989 256.0971588983787 713.6024916267642 257.44679312065244"></path><polygon fill="black" stroke="black" points="713.633 253.947 723.602 257.534 713.572 260.947 713.633 253.947"></polygon><text text-anchor="middle" font-family="Times Roman, serif" font-size="14.00" x="479.5220031738281" y="242.43531799316406">SYMBOLE{’+’, ’−’, ’*’, ’/’,"%",etc}</text></g><g class="edge" id="RV9JTklU RV9JTklU"><title>E_INIT-&gt;E_INIT</title><path fill="none" stroke="black" d="M 196.92646872720184 208.1645635282157 C 195.92646872720184 198.1645635282157 196 189.1645635282157 204 189.1645635282157 C 209 189.1645635282157 213 192.1645635282157 214 198.1645635282157"></path><polygon fill="black" stroke="black" points="217.443 198.792 212.143 208.345 210.557 197.537 217.443 198.792"></polygon><text text-anchor="middle" font-family="Times Roman, serif" font-size="14.00" x="204" y="184.1645635282157">separateur</text></g></g></svg>